<mxfile host="Electron" modified="2024-05-23T00:04:38.829Z" agent="Mozilla/5.0 (Windows NT 10.0; Win64; x64) AppleWebKit/537.36 (KHTML, like Gecko) draw.io/24.4.6 Chrome/124.0.6367.207 Electron/30.0.6 Safari/537.36" etag="PpKUTIPvGI4a6yqQ739T" version="24.4.6" type="device">
  <diagram name="Page-1" id="5vWnf-lrwacm1FtQp2vs">
    <mxGraphModel dx="2311" dy="717" grid="1" gridSize="10" guides="1" tooltips="1" connect="1" arrows="1" fold="1" page="1" pageScale="1" pageWidth="850" pageHeight="1100" math="0" shadow="0">
      <root>
        <mxCell id="0" />
        <mxCell id="1" parent="0" />
        <mxCell id="lBu27hW9urEZFGZNFLFC-1" value="" style="ellipse;whiteSpace=wrap;html=1;" parent="1" vertex="1">
          <mxGeometry x="360" y="330" width="120" height="80" as="geometry" />
        </mxCell>
        <mxCell id="lBu27hW9urEZFGZNFLFC-2" value="Main" style="ellipse;whiteSpace=wrap;html=1;" parent="1" vertex="1">
          <mxGeometry x="360" y="330" width="120" height="80" as="geometry" />
        </mxCell>
        <mxCell id="lBu27hW9urEZFGZNFLFC-3" value="" style="endArrow=classic;html=1;rounded=0;" parent="1" edge="1">
          <mxGeometry width="50" height="50" relative="1" as="geometry">
            <mxPoint x="360" y="370" as="sourcePoint" />
            <mxPoint x="300" y="440" as="targetPoint" />
          </mxGeometry>
        </mxCell>
        <mxCell id="lBu27hW9urEZFGZNFLFC-4" value="" style="endArrow=classic;html=1;rounded=0;exitX=1;exitY=0.5;exitDx=0;exitDy=0;" parent="1" source="lBu27hW9urEZFGZNFLFC-2" edge="1">
          <mxGeometry width="50" height="50" relative="1" as="geometry">
            <mxPoint x="400" y="400" as="sourcePoint" />
            <mxPoint x="540" y="440" as="targetPoint" />
          </mxGeometry>
        </mxCell>
        <mxCell id="lBu27hW9urEZFGZNFLFC-5" value="parent" style="ellipse;whiteSpace=wrap;html=1;" parent="1" vertex="1">
          <mxGeometry x="240" y="440" width="120" height="80" as="geometry" />
        </mxCell>
        <mxCell id="lBu27hW9urEZFGZNFLFC-6" value="child&lt;div&gt;generate array ranodm and stored by Pipe (write)&lt;/div&gt;" style="ellipse;whiteSpace=wrap;html=1;" parent="1" vertex="1">
          <mxGeometry x="360" y="550" width="120" height="80" as="geometry" />
        </mxCell>
        <mxCell id="lBu27hW9urEZFGZNFLFC-7" value="" style="endArrow=classic;html=1;rounded=0;" parent="1" edge="1">
          <mxGeometry width="50" height="50" relative="1" as="geometry">
            <mxPoint x="240" y="480" as="sourcePoint" />
            <mxPoint x="180" y="550" as="targetPoint" />
          </mxGeometry>
        </mxCell>
        <mxCell id="lBu27hW9urEZFGZNFLFC-8" value="" style="endArrow=classic;html=1;rounded=0;" parent="1" edge="1">
          <mxGeometry width="50" height="50" relative="1" as="geometry">
            <mxPoint x="360" y="480" as="sourcePoint" />
            <mxPoint x="420" y="550" as="targetPoint" />
          </mxGeometry>
        </mxCell>
        <mxCell id="lBu27hW9urEZFGZNFLFC-9" value="parent" style="ellipse;whiteSpace=wrap;html=1;" parent="1" vertex="1">
          <mxGeometry x="120" y="550" width="120" height="80" as="geometry" />
        </mxCell>
        <mxCell id="lBu27hW9urEZFGZNFLFC-10" value="child&lt;div&gt;read pipe and implement&amp;nbsp;&lt;/div&gt;&lt;div&gt;buble sort&lt;/div&gt;" style="ellipse;whiteSpace=wrap;html=1;" parent="1" vertex="1">
          <mxGeometry x="240" y="660" width="120" height="80" as="geometry" />
        </mxCell>
        <mxCell id="lBu27hW9urEZFGZNFLFC-11" value="" style="endArrow=classic;html=1;rounded=0;" parent="1" edge="1">
          <mxGeometry width="50" height="50" relative="1" as="geometry">
            <mxPoint x="120" y="590" as="sourcePoint" />
            <mxPoint x="60" y="660" as="targetPoint" />
          </mxGeometry>
        </mxCell>
        <mxCell id="lBu27hW9urEZFGZNFLFC-12" value="" style="endArrow=classic;html=1;rounded=0;exitX=1;exitY=0.5;exitDx=0;exitDy=0;" parent="1" edge="1">
          <mxGeometry width="50" height="50" relative="1" as="geometry">
            <mxPoint x="240" y="590" as="sourcePoint" />
            <mxPoint x="300" y="660" as="targetPoint" />
          </mxGeometry>
        </mxCell>
        <mxCell id="lBu27hW9urEZFGZNFLFC-13" value="parent" style="ellipse;whiteSpace=wrap;html=1;" parent="1" vertex="1">
          <mxGeometry y="660" width="120" height="80" as="geometry" />
        </mxCell>
        <mxCell id="lBu27hW9urEZFGZNFLFC-15" value="child&lt;div&gt;&lt;div&gt;read pipe and implement&amp;nbsp;&lt;/div&gt;&lt;div&gt;selection sort&lt;/div&gt;&lt;/div&gt;" style="ellipse;whiteSpace=wrap;html=1;" parent="1" vertex="1">
          <mxGeometry x="120" y="770" width="120" height="80" as="geometry" />
        </mxCell>
        <mxCell id="lBu27hW9urEZFGZNFLFC-16" value="" style="endArrow=classic;html=1;rounded=0;" parent="1" edge="1">
          <mxGeometry width="50" height="50" relative="1" as="geometry">
            <mxPoint y="700" as="sourcePoint" />
            <mxPoint x="-60" y="770" as="targetPoint" />
          </mxGeometry>
        </mxCell>
        <mxCell id="lBu27hW9urEZFGZNFLFC-17" value="" style="endArrow=classic;html=1;rounded=0;exitX=1;exitY=0.5;exitDx=0;exitDy=0;" parent="1" edge="1">
          <mxGeometry width="50" height="50" relative="1" as="geometry">
            <mxPoint x="120" y="700" as="sourcePoint" />
            <mxPoint x="180" y="770" as="targetPoint" />
          </mxGeometry>
        </mxCell>
        <mxCell id="lBu27hW9urEZFGZNFLFC-18" value="parent" style="ellipse;whiteSpace=wrap;html=1;" parent="1" vertex="1">
          <mxGeometry x="-120" y="770" width="120" height="80" as="geometry" />
        </mxCell>
        <mxCell id="lBu27hW9urEZFGZNFLFC-19" value="child&lt;div&gt;&lt;div&gt;read pipe and implement&amp;nbsp;&lt;/div&gt;&lt;div&gt;insertion sort&lt;/div&gt;&lt;/div&gt;" style="ellipse;whiteSpace=wrap;html=1;" parent="1" vertex="1">
          <mxGeometry y="880" width="120" height="80" as="geometry" />
        </mxCell>
        <mxCell id="lBu27hW9urEZFGZNFLFC-20" value="" style="endArrow=classic;html=1;rounded=0;" parent="1" edge="1">
          <mxGeometry width="50" height="50" relative="1" as="geometry">
            <mxPoint x="-120" y="810" as="sourcePoint" />
            <mxPoint x="-180" y="880" as="targetPoint" />
          </mxGeometry>
        </mxCell>
        <mxCell id="lBu27hW9urEZFGZNFLFC-21" value="" style="endArrow=classic;html=1;rounded=0;exitX=1;exitY=0.5;exitDx=0;exitDy=0;" parent="1" edge="1">
          <mxGeometry width="50" height="50" relative="1" as="geometry">
            <mxPoint y="810" as="sourcePoint" />
            <mxPoint x="60" y="880" as="targetPoint" />
          </mxGeometry>
        </mxCell>
        <mxCell id="lBu27hW9urEZFGZNFLFC-22" value="parent" style="ellipse;whiteSpace=wrap;html=1;" parent="1" vertex="1">
          <mxGeometry x="-240" y="880" width="120" height="80" as="geometry" />
        </mxCell>
        <mxCell id="lBu27hW9urEZFGZNFLFC-23" value="child&lt;div&gt;&lt;div&gt;read pipe and implement&amp;nbsp;&lt;/div&gt;&lt;div&gt;quick sort&lt;/div&gt;&lt;/div&gt;" style="ellipse;whiteSpace=wrap;html=1;" parent="1" vertex="1">
          <mxGeometry x="-120" y="990" width="120" height="80" as="geometry" />
        </mxCell>
        <mxCell id="lBu27hW9urEZFGZNFLFC-24" value="" style="endArrow=classic;html=1;rounded=0;" parent="1" edge="1">
          <mxGeometry width="50" height="50" relative="1" as="geometry">
            <mxPoint x="-240" y="920" as="sourcePoint" />
            <mxPoint x="-300" y="990" as="targetPoint" />
          </mxGeometry>
        </mxCell>
        <mxCell id="lBu27hW9urEZFGZNFLFC-25" value="" style="endArrow=classic;html=1;rounded=0;exitX=1;exitY=0.5;exitDx=0;exitDy=0;" parent="1" edge="1">
          <mxGeometry width="50" height="50" relative="1" as="geometry">
            <mxPoint x="-120" y="920" as="sourcePoint" />
            <mxPoint x="-60" y="990" as="targetPoint" />
          </mxGeometry>
        </mxCell>
        <mxCell id="lBu27hW9urEZFGZNFLFC-26" value="parent" style="ellipse;whiteSpace=wrap;html=1;" parent="1" vertex="1">
          <mxGeometry x="-360" y="990" width="120" height="80" as="geometry" />
        </mxCell>
        <mxCell id="lBu27hW9urEZFGZNFLFC-27" value="child&lt;div&gt;&lt;div&gt;read pipe and implement&amp;nbsp;&lt;/div&gt;&lt;div&gt;linear Search&lt;/div&gt;&lt;/div&gt;" style="ellipse;whiteSpace=wrap;html=1;" parent="1" vertex="1">
          <mxGeometry x="-240" y="1100" width="120" height="80" as="geometry" />
        </mxCell>
        <mxCell id="lBu27hW9urEZFGZNFLFC-28" value="" style="endArrow=classic;html=1;rounded=0;exitX=1;exitY=0.5;exitDx=0;exitDy=0;" parent="1" edge="1">
          <mxGeometry width="50" height="50" relative="1" as="geometry">
            <mxPoint x="-240" y="1030" as="sourcePoint" />
            <mxPoint x="-180" y="1100" as="targetPoint" />
          </mxGeometry>
        </mxCell>
        <mxCell id="lBu27hW9urEZFGZNFLFC-29" value="" style="endArrow=classic;html=1;rounded=0;" parent="1" edge="1">
          <mxGeometry width="50" height="50" relative="1" as="geometry">
            <mxPoint x="-360" y="1030" as="sourcePoint" />
            <mxPoint x="-420" y="1100" as="targetPoint" />
          </mxGeometry>
        </mxCell>
        <mxCell id="lBu27hW9urEZFGZNFLFC-30" value="parent" style="ellipse;whiteSpace=wrap;html=1;" parent="1" vertex="1">
          <mxGeometry x="-480" y="1100" width="120" height="80" as="geometry" />
        </mxCell>
        <mxCell id="lBu27hW9urEZFGZNFLFC-32" value="child&lt;div&gt;&lt;div&gt;read pipe and implement&amp;nbsp;&lt;/div&gt;&lt;div&gt;binary Search&lt;br&gt;&lt;/div&gt;&lt;/div&gt;" style="ellipse;whiteSpace=wrap;html=1;" parent="1" vertex="1">
          <mxGeometry x="-360" y="1210" width="120" height="80" as="geometry" />
        </mxCell>
        <mxCell id="lBu27hW9urEZFGZNFLFC-33" value="" style="endArrow=classic;html=1;rounded=0;" parent="1" edge="1">
          <mxGeometry width="50" height="50" relative="1" as="geometry">
            <mxPoint x="-480" y="1140" as="sourcePoint" />
            <mxPoint x="-540" y="1210" as="targetPoint" />
          </mxGeometry>
        </mxCell>
        <mxCell id="lBu27hW9urEZFGZNFLFC-34" value="" style="endArrow=classic;html=1;rounded=0;exitX=1;exitY=0.5;exitDx=0;exitDy=0;" parent="1" edge="1">
          <mxGeometry width="50" height="50" relative="1" as="geometry">
            <mxPoint x="-360" y="1140" as="sourcePoint" />
            <mxPoint x="-300" y="1210" as="targetPoint" />
          </mxGeometry>
        </mxCell>
        <mxCell id="lBu27hW9urEZFGZNFLFC-35" value="&lt;div&gt;&lt;div&gt;parent&lt;/div&gt;&lt;/div&gt;" style="ellipse;whiteSpace=wrap;html=1;" parent="1" vertex="1">
          <mxGeometry x="-600" y="1210" width="120" height="80" as="geometry" />
        </mxCell>
        <mxCell id="lBu27hW9urEZFGZNFLFC-36" value="child&lt;div&gt;&lt;div&gt;read pipe and implement&amp;nbsp;&lt;/div&gt;&lt;/div&gt;&lt;div&gt;interpolation&lt;/div&gt;&lt;div&gt;&amp;nbsp;Search&lt;br&gt;&lt;/div&gt;" style="ellipse;whiteSpace=wrap;html=1;" parent="1" vertex="1">
          <mxGeometry x="-480" y="1320" width="120" height="80" as="geometry" />
        </mxCell>
        <mxCell id="spbtwwtNMVM9uDrdpP_Z-2" value="" style="endArrow=classic;html=1;rounded=0;" edge="1" parent="1">
          <mxGeometry width="50" height="50" relative="1" as="geometry">
            <mxPoint x="-600" y="1250" as="sourcePoint" />
            <mxPoint x="-660" y="1320" as="targetPoint" />
          </mxGeometry>
        </mxCell>
        <mxCell id="spbtwwtNMVM9uDrdpP_Z-4" value="parent&lt;div&gt;&lt;div&gt;read pipe and implement&amp;nbsp;&lt;/div&gt;&lt;div&gt;exponential Search&lt;br&gt;&lt;/div&gt;&lt;/div&gt;" style="ellipse;whiteSpace=wrap;html=1;" vertex="1" parent="1">
          <mxGeometry x="-720" y="1320" width="120" height="80" as="geometry" />
        </mxCell>
        <mxCell id="spbtwwtNMVM9uDrdpP_Z-5" value="" style="endArrow=classic;html=1;rounded=0;exitX=1;exitY=0.5;exitDx=0;exitDy=0;" edge="1" parent="1">
          <mxGeometry width="50" height="50" relative="1" as="geometry">
            <mxPoint x="-480" y="1250" as="sourcePoint" />
            <mxPoint x="-420" y="1320" as="targetPoint" />
          </mxGeometry>
        </mxCell>
        <mxCell id="spbtwwtNMVM9uDrdpP_Z-6" value="parent&lt;div&gt;&lt;div&gt;implement&amp;nbsp;&lt;/div&gt;&lt;div&gt;hash function&lt;/div&gt;&lt;/div&gt;" style="ellipse;whiteSpace=wrap;html=1;" vertex="1" parent="1">
          <mxGeometry x="480" y="440" width="120" height="80" as="geometry" />
        </mxCell>
      </root>
    </mxGraphModel>
  </diagram>
</mxfile>
